<svg width="145" height="62" viewBox="0 0 145 62" fill="none" xmlns="http://www.w3.org/2000/svg">
<path d="M144.725 34.21C144.725 31.4077 136.008 20.7278 130.322 14.4312H103.851V46.8872H108.342C108.322 47.1921 108.296 47.4933 108.296 47.8037C108.296 55.6302 114.664 61.998 122.492 61.998C130.319 61.998 136.687 55.6302 136.687 47.8037C136.687 47.4933 136.659 47.1921 136.641 46.8872H144.725V34.21ZM122.492 56.5229C117.684 56.5229 113.773 52.6106 113.773 47.8055C113.773 42.9968 117.685 39.0863 122.492 39.0863C127.299 39.0863 131.21 42.9986 131.21 47.8055C131.212 52.6106 127.299 56.5229 122.492 56.5229Z" fill="white"/>
<path d="M0.5 5.90016L72.6125 7.30042L0.5 8.7025V15.2492L85.6968 16.7134L0.5 18.1775V24.5983L67.1356 26.1263L0.5 27.6544V46.8892H4.7592C4.73912 47.1941 4.71356 47.4954 4.71356 47.8057C4.71356 55.6322 11.0814 62 18.9078 62C26.7343 62 33.1021 55.6322 33.1021 47.8057C33.1021 47.4954 33.0748 47.1941 33.0565 46.8892H47.4589C47.4388 47.1941 47.4133 47.4954 47.4133 47.8057C47.4133 55.6322 53.7811 62 61.6094 62C69.4359 62 75.8037 55.6322 75.8037 47.8057C75.8037 47.4954 75.7763 47.1941 75.758 46.8892H102.031V9.49483V0.0270996H0.5V5.90016ZM18.906 56.5231C14.0991 56.5231 10.1886 52.6108 10.1886 47.8057C10.1886 42.997 14.0991 39.0865 18.906 39.0865C23.7129 39.0865 27.6234 42.9988 27.6234 47.8057C27.6234 52.6108 23.7129 56.5231 18.906 56.5231ZM61.6057 56.5231C56.797 56.5231 52.8865 52.6108 52.8865 47.8057C52.8865 42.997 56.7988 39.0865 61.6057 39.0865C66.4126 39.0865 70.3231 42.9988 70.3231 47.8057C70.3231 52.6108 66.4126 56.5231 61.6057 56.5231Z" fill="white"/>
</svg>
