<svg width="188" height="70" viewBox="0 0 188 70" fill="none" xmlns="http://www.w3.org/2000/svg">
<g clip-path="url(#clip0)">
<path d="M1 20.7191C1 15.3514 5.3514 11 10.7191 11H178.536C183.904 11 188.255 15.3514 188.255 20.7191V49.8764C188.255 55.2442 183.904 59.5956 178.536 59.5956H10.7191C5.3514 59.5956 1 55.2442 1 49.8764V20.7191Z" fill="url(#paint0_radial)"/>
<path fill-rule="evenodd" clip-rule="evenodd" d="M176 14.9719H12.7191C7.88817 14.9719 3.97191 18.8882 3.97191 23.7191V47.3689C3.97191 52.1999 7.88818 56.1161 12.7191 56.1161H176C180.831 56.1161 184.747 52.1999 184.747 47.369V23.7191C184.747 18.8882 180.831 14.9719 176 14.9719ZM12.7191 14C7.3514 14 3 18.3514 3 23.7191V47.3689C3 52.7367 7.3514 57.0881 12.7191 57.0881H176C181.368 57.0881 185.719 52.7367 185.719 47.369V23.7191C185.719 18.3514 181.368 14 176 14H12.7191Z" fill="white"/>
<path d="M26.612 42.1912L37.2975 42.223L36.549 46.5227H19L19.5574 43.3378L32.9182 27.6838L22.2009 27.6519L22.9652 23.3364H40.4665L39.925 26.4417L26.612 42.1912Z" fill="white"/>
<path d="M44.1419 46.5227H38.6956L42.7246 23.3364H48.1549L44.1419 46.5227Z" fill="white"/>
<path d="M66.0351 46.5227H60.7641L55.2223 31.8879L52.6743 46.5227H47.2281L51.2411 23.3364H56.5599L62.0858 37.9711L64.6178 23.3364H70.0641L66.0351 46.5227Z" fill="white"/>
<path d="M88.231 38.624C88.0929 40.2484 87.5568 41.6922 86.6226 42.9556C85.6989 44.2189 84.478 45.1903 82.9599 45.8698C81.4524 46.5492 79.8174 46.873 78.0551 46.8412C75.6345 46.7881 73.7289 46.0078 72.3381 44.5003C70.9474 42.9927 70.1883 40.9491 70.0609 38.3693C69.9653 36.6494 70.1511 34.7756 70.6183 32.7478C71.096 30.7201 71.8657 28.9578 72.9273 27.4608C73.9996 25.9533 75.2576 24.828 76.7015 24.0848C78.1559 23.331 79.7431 22.9701 81.463 23.0019C83.9897 23.0444 85.9856 23.8035 87.4506 25.2792C88.9263 26.7549 89.7279 28.7879 89.8553 31.3783L84.425 31.3624C84.4462 29.9504 84.1914 28.9418 83.6606 28.3367C83.1298 27.7316 82.291 27.4078 81.1445 27.3653C78.278 27.2698 76.5316 29.4992 75.9053 34.0537C75.6186 36.1133 75.4753 37.5836 75.4753 38.4648C75.4222 41.0764 76.3883 42.4194 78.3736 42.4937C79.6582 42.5362 80.6827 42.223 81.447 41.5542C82.2114 40.8747 82.6998 39.9193 82.9121 38.6877L88.231 38.624Z" fill="white"/>
<path d="M102.528 42.1912H95.1232L93.0689 46.5227H87.0653L99.3432 23.3364H104.471L108.755 46.5227H103.085L102.528 42.1912ZM97.1615 37.8756H101.971L100.952 29.8814L97.1615 37.8756Z" fill="white"/>
<path d="M122.558 40.2484C122.792 39.0487 122.144 38.1198 120.615 37.4615L118.004 36.3787C114.341 34.7331 112.6 32.493 112.78 29.6585C112.855 28.3632 113.301 27.2114 114.118 26.2028C114.936 25.1836 116.066 24.3927 117.51 23.83C118.954 23.2673 120.53 22.9966 122.24 23.0179C124.533 23.0603 126.375 23.7292 127.766 25.0244C129.167 26.3196 129.857 28.0554 129.836 30.2317H124.421C124.453 29.34 124.262 28.6287 123.848 28.0978C123.445 27.5564 122.776 27.2751 121.842 27.2538C120.929 27.2326 120.122 27.4449 119.421 27.8908C118.72 28.3367 118.306 28.9365 118.179 29.6903C117.977 30.7519 118.763 31.6225 120.536 32.3019C122.319 32.9814 123.615 33.5653 124.421 34.0537C126.959 35.5718 128.148 37.6208 127.989 40.2006C127.904 41.5383 127.474 42.7114 126.699 43.7199C125.924 44.7285 124.846 45.5088 123.466 46.0609C122.096 46.6129 120.557 46.8783 118.848 46.8571C117.595 46.8359 116.433 46.6395 115.36 46.2679C114.288 45.8963 113.37 45.3549 112.605 44.6436C111.055 43.2104 110.312 41.3259 110.376 38.9903L115.838 39.0062C115.774 40.1953 116.003 41.0977 116.523 41.7134C117.043 42.3186 117.919 42.6211 119.15 42.6211C120.063 42.6211 120.822 42.4141 121.428 42.0001C122.043 41.5754 122.42 40.9915 122.558 40.2484Z" fill="white"/>
<path d="M150.726 23.3364L148.146 38.4648C147.774 41.0871 146.692 43.152 144.897 44.6595C143.114 46.167 140.863 46.8996 138.145 46.8571C136.457 46.8253 134.992 46.4643 133.75 45.7742C132.508 45.0735 131.59 44.0915 130.995 42.8282C130.411 41.5542 130.215 40.105 130.406 38.4807L132.986 23.3364H138.464L135.9 38.4967C135.836 39.0275 135.826 39.5318 135.868 40.0095C135.921 40.7951 136.165 41.4056 136.601 41.8408C137.046 42.2761 137.673 42.5097 138.48 42.5415C140.815 42.6158 142.222 41.2622 142.7 38.4807L145.28 23.3364H150.726Z" fill="white"/>
<path d="M159.242 38.3374H156.217L154.783 46.5227H149.337L153.35 23.3364L161.535 23.3523C164.158 23.3523 166.175 23.968 167.587 25.1995C169.009 26.4204 169.646 28.0925 169.498 30.2158C169.381 31.8932 168.898 33.284 168.049 34.3881C167.199 35.4816 166.01 36.3468 164.481 36.9838L167.603 46.252V46.5227H161.79L159.242 38.3374ZM156.949 34.0218L160.134 34.0537C161.005 34.0537 161.758 33.8413 162.395 33.4167C163.043 32.992 163.505 32.4134 163.781 31.6809C164.057 30.9377 164.136 30.2211 164.02 29.5311C163.807 28.3526 163.054 27.7316 161.758 27.6679L158.064 27.6519L156.949 34.0218Z" fill="white"/>
</g>
<defs>
<radialGradient id="paint0_radial" cx="0" cy="0" r="1" gradientUnits="userSpaceOnUse" gradientTransform="translate(94.6275 35.2978) scale(140.967 36.5832)">
<stop stop-color="#0279E1"/>
<stop offset="1" stop-color="#045299"/>
</radialGradient>
<clipPath id="clip0">
<rect x="0.745117" width="187.255" height="70" fill="white"/>
</clipPath>
</defs>
</svg>
