<svg width="623" height="284" fill="none" xmlns="http://www.w3.org/2000/svg">
  <path d="M57 77c0-16.569 13.431-30 30-30h449c16.569 0 30 13.431 30 30v131c0 16.569-13.431 30-30 30H87c-16.569 0-30-13.431-30-30V77z" fill="url(#paint0_radial)"/>
  <path d="M0 108c0-16.569 13.431-30 30-30h563c16.569 0 30 13.431 30 30v69c0 16.569-13.431 30-30 30H30c-16.569 0-30-13.431-30-30v-69z" fill="url(#paint1_radial)"/>
  <path d="M479 142c0 78.424-74.992 142-167.5 142S144 220.424 144 142 218.992 0 311.5 0 479 63.576 479 142z" fill="url(#paint2_radial)"/>
  <path d="M427.838 230c-28.487 26.953-69.9 44-116.257 44-46.358 0-87.771-17.047-116.257-44H191c29.159 28.777 72.363 47 120.581 47 48.217 0 91.421-18.223 120.58-47h-4.323zM195.324 54c28.486-26.953 69.899-44 116.257-44 46.357 0 87.77 17.047 116.257 44h4.323c-29.159-28.777-72.363-47-120.58-47C263.363 7 220.159 25.223 191 54h4.324z" fill="#fff"/>
  <path d="M429.013 54h115.412a29.877 29.877 0 00-13.092-3H425.707c1.12.986 2.222 1.986 3.306 3zM197.293 51H87.833A14.437 14.437 0 0079 54h114.987a146.425 146.425 0 013.306-3zM424.957 233a145.64 145.64 0 003.35-3h116.118a29.877 29.877 0 01-13.092 3H424.957zM198.043 233a145.64 145.64 0 01-3.35-3H90.241a29.88 29.88 0 0013.092 3h94.71zM100.783 145.209l32.983.098-2.31 13.272H77.288l1.72-9.831 41.241-48.319-33.081-.099 2.359-13.32h54.021l-1.671 9.585-41.094 48.614zm54.11 13.37h-16.811l12.436-71.57h16.762l-12.387 71.57zm67.578 0h-16.27l-17.106-45.173-7.865 45.173h-16.811l12.387-71.57h16.418l17.057 45.174 7.815-45.174h16.811l-12.436 71.57zm68.512-24.381c-.426 5.014-2.081 9.47-4.965 13.37-2.851 3.9-6.619 6.898-11.305 8.995-4.654 2.098-9.7 3.097-15.14 2.999-7.472-.164-13.354-2.573-17.647-7.226-4.292-4.653-6.636-10.961-7.029-18.924-.295-5.309.279-11.093 1.721-17.352 1.474-6.259 3.85-11.699 7.127-16.32 3.31-4.653 7.193-8.126 11.65-10.42 4.489-2.327 9.388-3.441 14.697-3.343 7.799.131 13.96 2.474 18.482 7.03 4.555 4.554 7.029 10.83 7.423 18.826l-16.762-.05c.065-4.358-.721-7.471-2.36-9.339-1.638-1.868-4.227-2.867-7.766-2.998-8.848-.295-14.239 6.586-16.172 20.645-.885 6.357-1.327 10.896-1.327 13.615-.164 8.062 2.818 12.207 8.946 12.437 3.965.131 7.127-.836 9.487-2.901 2.359-2.097 3.867-5.046 4.522-8.847l16.418-.197zm44.131 11.011h-22.857l-6.341 13.37h-18.531l37.898-71.57h15.828l13.222 71.57h-17.499l-1.72-13.37zm-16.565-13.321h14.845l-3.146-24.676-11.699 24.676zm78.392 7.324c.721-3.703-1.278-6.571-5.997-8.602l-8.061-3.343c-11.306-5.079-16.68-11.994-16.123-20.743.229-3.998 1.605-7.554 4.129-10.667 2.523-3.146 6.013-5.587 10.47-7.324 4.456-1.737 9.323-2.572 14.599-2.507 7.078.131 12.764 2.196 17.056 6.194 4.326 3.998 6.456 9.356 6.39 16.073h-16.712c.098-2.752-.492-4.948-1.77-6.586-1.245-1.672-3.309-2.54-6.193-2.605-2.818-.066-5.309.59-7.472 1.966-2.163 1.376-3.441 3.228-3.834 5.554-.622 3.277 1.803 5.964 7.275 8.062 5.505 2.097 9.503 3.899 11.994 5.407 7.832 4.686 11.502 11.01 11.011 18.973-.263 4.129-1.59 7.75-3.982 10.864-2.392 3.113-5.718 5.521-9.978 7.225-4.228 1.704-8.979 2.524-14.255 2.458-3.867-.066-7.455-.672-10.765-1.819-3.31-1.147-6.145-2.818-8.504-5.014-4.784-4.423-7.078-10.24-6.882-17.449l16.86.049c-.196 3.67.508 6.455 2.114 8.356 1.606 1.868 4.309 2.802 8.111 2.802 2.818 0 5.161-.639 7.029-1.917 1.9-1.311 3.064-3.113 3.49-5.407zm86.945-52.203l-7.963 46.697c-1.147 8.095-4.49 14.468-10.028 19.122-5.505 4.653-12.453 6.914-20.842 6.783-5.21-.098-9.732-1.212-13.566-3.343-3.834-2.162-6.669-5.194-8.504-9.093-1.802-3.933-2.409-8.406-1.819-13.419l7.963-46.747h16.909l-7.913 46.796c-.197 1.638-.23 3.195-.099 4.669.164 2.425.918 4.31 2.261 5.653 1.377 1.344 3.31 2.065 5.801 2.163 7.209.229 11.551-3.949 13.026-12.534l7.963-46.747h16.811zm26.288 46.304h-9.34l-4.424 25.266h-16.811l12.387-71.57 25.266.05c8.094 0 14.32 1.9 18.679 5.701 4.391 3.77 6.357 8.93 5.898 15.484-.36 5.178-1.851 9.471-4.473 12.879-2.621 3.375-6.292 6.046-11.01 8.012l9.634 28.608v.836h-17.942l-7.864-25.266zm-7.079-13.321l9.831.099c2.687 0 5.014-.656 6.98-1.967 1.999-1.31 3.425-3.096 4.277-5.357.852-2.294 1.098-4.506.737-6.636-.655-3.638-2.982-5.555-6.98-5.751l-11.404-.05-3.441 19.662zM93.687 190.168H85.53v6.112h9.536v2.755H82.077v-19.863H94.97v2.783h-9.44v5.484h8.158v2.729zm15.409 3.751c0-.873-.31-1.546-.928-2.019-.61-.473-1.715-.95-3.315-1.432-1.601-.482-2.874-1.019-3.82-1.61-1.81-1.137-2.715-2.619-2.715-4.447 0-1.601.65-2.92 1.951-3.957 1.309-1.037 3.006-1.555 5.088-1.555 1.383 0 2.615.255 3.698.764 1.082.509 1.932 1.237 2.551 2.183.618.937.927 1.978.927 3.124h-3.437c0-1.037-.328-1.846-.983-2.428-.645-.592-1.573-.887-2.783-.887-1.128 0-2.005.241-2.633.723-.618.482-.928 1.155-.928 2.019 0 .728.337 1.337 1.01 1.828.673.482 1.783.955 3.329 1.419 1.546.455 2.787.978 3.724 1.569.937.582 1.624 1.255 2.06 2.019.437.755.655 1.642.655 2.66 0 1.655-.637 2.974-1.91 3.956-1.264.974-2.983 1.46-5.157 1.46-1.437 0-2.76-.264-3.97-.791-1.2-.537-2.137-1.273-2.81-2.21-.664-.937-.996-2.028-.996-3.274h3.452c0 1.127.372 2.001 1.118 2.619.746.619 1.815.928 3.206.928 1.201 0 2.101-.241 2.701-.723.61-.491.915-1.137.915-1.938zm21.67-11.964h-6.194v17.08h-3.424v-17.08h-6.139v-2.783h15.757v2.783zm12.939 12.456h-7.694l-1.61 4.624h-3.588l7.503-19.863h3.097l7.517 19.863h-3.602l-1.623-4.624zm-6.726-2.783h5.757l-2.878-8.241-2.879 8.241zm15.054 7.407v-19.863h6.808c2.246 0 3.956.45 5.129 1.35 1.173.901 1.76 2.242 1.76 4.025 0 .91-.246 1.728-.737 2.456-.491.727-1.209 1.291-2.155 1.691 1.073.291 1.901.842 2.483 1.651.591.8.887 1.765.887 2.892 0 1.865-.601 3.297-1.801 4.298-1.192 1-2.902 1.5-5.13 1.5h-7.244zm3.452-8.963v6.208h3.833c1.082 0 1.928-.269 2.538-.805.609-.537.914-1.283.914-2.238 0-2.064-1.055-3.119-3.165-3.165h-4.12zm0-2.537h3.383c1.073 0 1.91-.241 2.51-.723.609-.491.914-1.183.914-2.074 0-.982-.282-1.692-.846-2.128-.555-.437-1.423-.655-2.605-.655h-3.356v5.58zm18.464 8.745h9.018v2.755h-12.47v-19.863h3.452v17.108zm24.112-6.112h-8.158v6.112h9.536v2.755h-12.988v-19.863h12.893v2.783h-9.441v5.484h8.158v2.729zm20.184 2.401c-.201 2.119-.983 3.774-2.347 4.966-1.364 1.182-3.179 1.773-5.443 1.773-1.583 0-2.979-.373-4.189-1.118-1.2-.755-2.128-1.824-2.783-3.206-.655-1.383-.996-2.988-1.023-4.816v-1.856c0-1.873.332-3.524.996-4.952.664-1.428 1.614-2.528 2.851-3.301 1.246-.773 2.683-1.16 4.311-1.16 2.192 0 3.957.596 5.294 1.787 1.337 1.192 2.114 2.874 2.333 5.048h-3.438c-.164-1.428-.582-2.456-1.255-3.083-.664-.637-1.642-.955-2.934-.955-1.5 0-2.655.55-3.465 1.65-.8 1.092-1.209 2.697-1.228 4.816v1.76c0 2.147.382 3.784 1.146 4.911.773 1.128 1.901 1.692 3.384 1.692 1.355 0 2.373-.305 3.056-.914.682-.609 1.114-1.623 1.296-3.042h3.438zm7.577 6.466h-3.438v-19.863h3.438v19.863zm9.556-19.863l5.73 15.225 5.716-15.225h4.461v19.863h-3.438v-6.548l.341-8.759-5.866 15.307h-2.469L234 183.742l.341 8.745v6.548h-3.438v-19.863h4.475zm24.481 19.863h-3.438v-19.863h3.438v19.863zm16.69-8.867h-8.158v6.112h9.536v2.755H264.94v-19.863h12.892v2.783h-9.441v5.484h8.158v2.729zm20.784 8.867h-3.452l-8.854-14.092v14.092h-3.451v-19.863h3.451l8.882 14.147v-14.147h3.424v19.863zm18.86-17.08h-6.194v17.08h-3.424v-17.08h-6.139v-2.783h15.757v2.783zm18.928 7.667c0 1.946-.336 3.656-1.009 5.13-.673 1.464-1.637 2.592-2.893 3.383-1.246.782-2.683 1.173-4.311 1.173-1.609 0-3.046-.391-4.311-1.173-1.255-.791-2.228-1.915-2.919-3.37-.682-1.455-1.028-3.133-1.037-5.034v-1.118c0-1.938.341-3.648 1.023-5.13.691-1.483 1.66-2.615 2.906-3.397 1.255-.791 2.692-1.187 4.311-1.187 1.619 0 3.052.391 4.298 1.173 1.255.773 2.223 1.892 2.905 3.356.683 1.456 1.028 3.152 1.037 5.089v1.105zm-3.451-1.037c0-2.201-.419-3.888-1.255-5.061-.828-1.173-2.006-1.76-3.534-1.76-1.491 0-2.66.587-3.506 1.76-.837 1.164-1.264 2.815-1.282 4.952v1.146c0 2.183.423 3.87 1.268 5.061.855 1.192 2.038 1.788 3.547 1.788 1.528 0 2.702-.582 3.52-1.747.828-1.164 1.242-2.865 1.242-5.102v-1.037zm19.998-9.413l5.73 15.225 5.716-15.225h4.461v19.863h-3.438v-6.548l.341-8.759-5.866 15.307h-2.469l-5.853-15.293.341 8.745v6.548h-3.438v-19.863h4.475zm32.448 10.996h-8.158v6.112h9.536v2.755h-12.988v-19.863h12.892v2.783h-9.44v5.484h8.158v2.729zm19.651-8.213h-6.194v17.08h-3.424v-17.08h-6.139v-2.783h15.757v2.783zm12.939 12.456h-7.694l-1.61 4.624h-3.588l7.504-19.863h3.096l7.517 19.863h-3.601l-1.624-4.624zm-6.725-2.783h5.757l-2.879-8.241-2.878 8.241zm18.505 4.652h9.018v2.755h-12.47v-19.863h3.452v17.108zm26.704-17.108v13.274c0 2.11-.677 3.784-2.032 5.021-1.347 1.227-3.143 1.841-5.389 1.841-2.274 0-4.079-.605-5.416-1.814-1.337-1.219-2.006-2.906-2.006-5.062v-13.26h3.438v13.288c0 1.328.337 2.342 1.01 3.042.673.7 1.664 1.05 2.974 1.05 2.655 0 3.983-1.4 3.983-4.201v-13.179h3.438zm-6.466-5.321h3.779l-3.779 4.134h-2.661l2.661-4.134zm18.3 17.531h-3.847v7.653h-3.451v-19.863h6.985c2.292 0 4.061.514 5.307 1.541 1.246 1.028 1.869 2.515 1.869 4.462 0 1.327-.323 2.442-.969 3.342-.637.891-1.528 1.578-2.674 2.06l4.461 8.281v.177h-3.697l-3.984-7.653zm-3.847-2.769h3.547c1.164 0 2.074-.292 2.729-.874.655-.591.982-1.396.982-2.414 0-1.064-.305-1.888-.914-2.47-.6-.582-1.501-.882-2.701-.9h-3.643v6.658zm30.047 7.844c-.718.937-1.714 1.646-2.988 2.128-1.273.482-2.719.723-4.338.723-1.664 0-3.138-.377-4.42-1.132-1.283-.755-2.274-1.833-2.974-3.233-.691-1.41-1.051-3.052-1.078-4.925v-1.556c0-3.001.718-5.343 2.155-7.025 1.438-1.692 3.443-2.538 6.017-2.538 2.21 0 3.965.546 5.266 1.637 1.3 1.092 2.083 2.665 2.346 4.72h-3.383c-.382-2.392-1.769-3.588-4.161-3.588-1.546 0-2.724.56-3.533 1.678-.801 1.11-1.215 2.743-1.242 4.898v1.528c0 2.147.45 3.815 1.351 5.007.909 1.182 2.169 1.773 3.779 1.773 1.764 0 3.019-.4 3.765-1.2v-3.888h-4.093v-2.62h7.531v7.613zm8.273 2.578h-3.438v-19.863h3.438v19.863zm20.238-6.466c-.2 2.119-.982 3.774-2.346 4.966-1.364 1.182-3.179 1.773-5.444 1.773-1.582 0-2.978-.373-4.188-1.118-1.2-.755-2.128-1.824-2.783-3.206-.655-1.383-.996-2.988-1.023-4.816v-1.856c0-1.873.332-3.524.996-4.952.664-1.428 1.614-2.528 2.851-3.301 1.246-.773 2.683-1.16 4.311-1.16 2.192 0 3.956.596 5.293 1.787 1.337 1.192 2.115 2.874 2.333 5.048h-3.438c-.163-1.428-.582-2.456-1.255-3.083-.664-.637-1.641-.955-2.933-.955-1.501 0-2.656.55-3.465 1.65-.8 1.092-1.21 2.697-1.228 4.816v1.76c0 2.147.382 3.784 1.146 4.911.773 1.128 1.901 1.692 3.383 1.692 1.356 0 2.374-.305 3.056-.914.682-.609 1.114-1.623 1.296-3.042h3.438zm19.788-2.947c0 1.946-.337 3.656-1.01 5.13-.673 1.464-1.637 2.592-2.892 3.383-1.246.782-2.683 1.173-4.311 1.173-1.61 0-3.047-.391-4.311-1.173-1.255-.791-2.228-1.915-2.919-3.37-.683-1.455-1.028-3.133-1.037-5.034v-1.118c0-1.938.341-3.648 1.023-5.13.691-1.483 1.66-2.615 2.906-3.397 1.255-.791 2.692-1.187 4.311-1.187 1.619 0 3.051.391 4.297 1.173 1.255.773 2.224 1.892 2.906 3.356.682 1.456 1.028 3.152 1.037 5.089v1.105zm-3.452-1.037c0-2.201-.418-3.888-1.255-5.061-.827-1.173-2.005-1.76-3.533-1.76-1.492 0-2.66.587-3.506 1.76-.837 1.164-1.264 2.815-1.283 4.952v1.146c0 2.183.423 3.87 1.269 5.061.855 1.192 2.037 1.788 3.547 1.788 1.528 0 2.701-.582 3.52-1.747.828-1.164 1.241-2.865 1.241-5.102v-1.037z" fill="#fff"/>
  <path d="M239 270c-24.721-2.642-38.946-2.693-65 0l36.305-23s3.695 9 10.195 13.5S239 270 239 270zM384 270c25.385-2.034 39.615-1.969 65 0l-36.305-23S409 256 402.5 260.5 384 270 384 270z" fill="#595656"/>
  <g filter="url(#filter0_d)">
    <path d="M312.993 210c-27.005 0-87.367 3-121.122 21L174 270c29.784-20 110.4-21.6 138.993-20 28.593 1.6 99.28 0 137.007 20l-19.856-39c-29.784-18-90.147-21-117.151-21z" fill="#C4C4C4"/>
  </g>
  <g filter="url(#filter1_d)" fill="#004F94">
    <path d="M263.61 232.38c1.718.28 3.034.924 3.948 1.932.915.989 1.372 2.221 1.372 3.696a5.92 5.92 0 01-.896 3.164c-.597.952-1.512 1.717-2.744 2.296-1.213.579-2.706.868-4.48.868-1.381 0-2.744-.177-4.088-.532-1.325-.373-2.454-.896-3.388-1.568l1.764-3.472a8.83 8.83 0 002.576 1.316c.99.299 1.998.448 3.024.448 1.139 0 2.035-.215 2.688-.644.654-.448.98-1.073.98-1.876 0-1.605-1.222-2.408-3.668-2.408h-2.072v-2.996l4.032-4.564h-8.344v-3.64h13.72v2.94l-4.424 5.04zM277.465 242.336c-1.624 0-3.071-.401-4.34-1.204-1.27-.803-2.268-1.96-2.996-3.472-.71-1.531-1.064-3.351-1.064-5.46s.354-3.92 1.064-5.432c.728-1.531 1.726-2.697 2.996-3.5 1.269-.803 2.716-1.204 4.34-1.204 1.624 0 3.07.401 4.34 1.204 1.269.803 2.258 1.969 2.968 3.5.728 1.512 1.092 3.323 1.092 5.432 0 2.109-.364 3.929-1.092 5.46-.71 1.512-1.699 2.669-2.968 3.472-1.27.803-2.716 1.204-4.34 1.204zm0-3.836c1.194 0 2.128-.513 2.8-1.54.69-1.027 1.036-2.613 1.036-4.76s-.346-3.733-1.036-4.76c-.672-1.027-1.606-1.54-2.8-1.54-1.176 0-2.11.513-2.8 1.54-.672 1.027-1.008 2.613-1.008 4.76s.336 3.733 1.008 4.76c.69 1.027 1.624 1.54 2.8 1.54zM306.218 235.8h-9.1l-1.736 4.2h-4.648l8.736-19.6h4.48l8.764 19.6h-4.76l-1.736-4.2zm-1.428-3.444l-3.108-7.504-3.108 7.504h6.216zM330.764 220.4V240h-3.724l-9.772-11.9V240h-4.48v-19.6h3.752l9.744 11.9v-11.9h4.48zm-6.888-1.512c-.504 0-.952-.093-1.344-.28a12.368 12.368 0 01-1.26-.812 6.622 6.622 0 00-.756-.504 1.083 1.083 0 00-.56-.168c-.392 0-.71.14-.952.42-.243.261-.374.644-.392 1.148H316.4c.037-1.251.345-2.24.924-2.968.597-.747 1.381-1.12 2.352-1.12.485 0 .914.103 1.288.308.392.187.83.457 1.316.812.298.224.541.392.728.504.205.112.401.168.588.168.373 0 .681-.131.924-.392.261-.28.401-.653.42-1.12h2.212c-.038 1.213-.355 2.184-.952 2.912-.579.728-1.354 1.092-2.324 1.092zM342.933 241.336c-2.035 0-3.873-.439-5.516-1.316-1.624-.877-2.903-2.081-3.836-3.612-.915-1.549-1.372-3.285-1.372-5.208s.457-3.649 1.372-5.18c.933-1.549 2.212-2.763 3.836-3.64 1.643-.877 3.481-1.316 5.516-1.316s3.864.439 5.488 1.316c1.624.877 2.903 2.091 3.836 3.64.933 1.531 1.4 3.257 1.4 5.18 0 1.923-.467 3.659-1.4 5.208-.933 1.531-2.212 2.735-3.836 3.612-1.624.877-3.453 1.316-5.488 1.316zm0-3.864c1.157 0 2.203-.261 3.136-.784a5.73 5.73 0 002.184-2.24c.541-.952.812-2.035.812-3.248s-.271-2.296-.812-3.248a5.541 5.541 0 00-2.184-2.212c-.933-.541-1.979-.812-3.136-.812s-2.203.271-3.136.812a5.728 5.728 0 00-2.212 2.212c-.523.952-.784 2.035-.784 3.248s.261 2.296.784 3.248a5.925 5.925 0 002.212 2.24c.933.523 1.979.784 3.136.784zM361.546 243.336c-1.549 0-3.052-.205-4.508-.616-1.437-.429-2.595-.98-3.472-1.652l1.54-3.416c.84.616 1.839 1.111 2.996 1.484s2.315.56 3.472.56c1.288 0 2.24-.187 2.856-.56.616-.392.924-.905.924-1.54 0-.467-.187-.849-.56-1.148-.355-.317-.821-.569-1.4-.756-.56-.187-1.325-.392-2.296-.616-1.493-.355-2.716-.709-3.668-1.064a6.07 6.07 0 01-2.464-1.708c-.672-.784-1.008-1.829-1.008-3.136 0-1.139.308-2.165.924-3.08.616-.933 1.54-1.671 2.772-2.212 1.251-.541 2.772-.812 4.564-.812 1.251 0 2.473.149 3.668.448 1.195.299 2.24.728 3.136 1.288l-1.4 3.444c-1.811-1.027-3.621-1.54-5.432-1.54-1.269 0-2.212.205-2.828.616-.597.411-.896.952-.896 1.624 0 .672.345 1.176 1.036 1.512.709.317 1.783.635 3.22.952 1.493.355 2.716.709 3.668 1.064a5.972 5.972 0 012.436 1.68c.691.765 1.036 1.801 1.036 3.108 0 1.12-.317 2.147-.952 3.08-.616.915-1.549 1.643-2.8 2.184-1.251.541-2.772.812-4.564.812z"/>
  </g>
  <defs>
    <radialGradient id="paint0_radial" cx="0" cy="0" r="1" gradientUnits="userSpaceOnUse" gradientTransform="matrix(469 0 0 213.798 311.5 142)">
      <stop stop-color="#0279E1"/>
      <stop offset="1" stop-color="#045299"/>
    </radialGradient>
    <radialGradient id="paint1_radial" cx="0" cy="0" r="1" gradientUnits="userSpaceOnUse" gradientTransform="matrix(469 0 0 213.798 311.5 142)">
      <stop stop-color="#0279E1"/>
      <stop offset="1" stop-color="#045299"/>
    </radialGradient>
    <radialGradient id="paint2_radial" cx="0" cy="0" r="1" gradientUnits="userSpaceOnUse" gradientTransform="matrix(469 0 0 213.798 311.5 142)">
      <stop stop-color="#0279E1"/>
      <stop offset="1" stop-color="#045299"/>
    </radialGradient>
    <filter id="filter0_d" x="170" y="210" width="284" height="68" filterUnits="userSpaceOnUse" color-interpolation-filters="sRGB">
      <feFlood flood-opacity="0" result="BackgroundImageFix"/>
      <feColorMatrix in="SourceAlpha" values="0 0 0 0 0 0 0 0 0 0 0 0 0 0 0 0 0 0 127 0"/>
      <feOffset dy="4"/>
      <feGaussianBlur stdDeviation="2"/>
      <feColorMatrix values="0 0 0 0 0 0 0 0 0 0 0 0 0 0 0 0 0 0 0.25 0"/>
      <feBlend in2="BackgroundImageFix" result="effect1_dropShadow"/>
      <feBlend in="SourceGraphic" in2="effect1_dropShadow" result="shape"/>
    </filter>
    <filter id="filter1_d" x="252.334" y="214.604" width="118.528" height="31.732" filterUnits="userSpaceOnUse" color-interpolation-filters="sRGB">
      <feFlood flood-opacity="0" result="BackgroundImageFix"/>
      <feColorMatrix in="SourceAlpha" values="0 0 0 0 0 0 0 0 0 0 0 0 0 0 0 0 0 0 127 0"/>
      <feOffset dy="1"/>
      <feGaussianBlur stdDeviation=".5"/>
      <feColorMatrix values="0 0 0 0 0 0 0 0 0 0 0 0 0 0 0 0 0 0 0.25 0"/>
      <feBlend in2="BackgroundImageFix" result="effect1_dropShadow"/>
      <feBlend in="SourceGraphic" in2="effect1_dropShadow" result="shape"/>
    </filter>
  </defs>
</svg>
